<?xml version="1.0" encoding="UTF-8" standalone="no"?>
<!-- Created with Inkscape (http://www.inkscape.org/) -->

<svg
   xmlns:dc="http://purl.org/dc/elements/1.1/"
   xmlns:cc="http://creativecommons.org/ns#"
   xmlns:rdf="http://www.w3.org/1999/02/22-rdf-syntax-ns#"
   xmlns:svg="http://www.w3.org/2000/svg"
   xmlns="http://www.w3.org/2000/svg"
   xmlns:sodipodi="http://sodipodi.sourceforge.net/DTD/sodipodi-0.dtd"
   xmlns:inkscape="http://www.inkscape.org/namespaces/inkscape"
   version="1.1"
   width="280"
   height="247"
   viewBox="0 0 280 247"
   id="svg2"
   xml:space="preserve"
   inkscape:version="0.48.5 r10040"
   sodipodi:docname="LogoWhite.svg"><sodipodi:namedview
   pagecolor="#ffffff"
   bordercolor="#666666"
   borderopacity="1"
   objecttolerance="10"
   gridtolerance="10"
   guidetolerance="10"
   inkscape:pageopacity="0"
   inkscape:pageshadow="2"
   inkscape:window-width="1600"
   inkscape:window-height="841"
   id="namedview19"
   showgrid="false"
   inkscape:zoom="0.95546559"
   inkscape:cx="-23.271186"
   inkscape:cy="123.5"
   inkscape:window-x="-8"
   inkscape:window-y="-8"
   inkscape:window-maximized="1"
   inkscape:current-layer="svg2" /><metadata
   id="metadata66"><rdf:RDF><cc:Work
       rdf:about=""><dc:format>image/svg+xml</dc:format><dc:type
         rdf:resource="http://purl.org/dc/dcmitype/StillImage" /><dc:title /></cc:Work></rdf:RDF></metadata><defs
   id="defs64">
	
	
	
	
	
	
	
	
	
</defs>
<g
   id="g5"
   transform="matrix(0.99872395,0,0,0.99859308,-107.48056,-128.01065)">
		<g
   id="g7">
			<path
   inkscape:connector-curvature="0"
   style="fill:#00a8c8;fill-rule:evenodd;fill-opacity:1"
   id="path9"
   d="m 223.437,253.312 c 0,0 -10.844,1.08 -18.638,5.505 v 5.506 l -1.096,2.202 4.386,2.202 3.288,2.203 1.097,-4.405 v -1.103 l 12.059,-5.506 -1.096,-6.604 z m -53.722,68.271 1.097,-3.303 1.096,-2.203 1.097,-3.305 h 2.192 l 1.097,-1.101 -1.097,-2.202 1.097,-1.101 v -3.305 h 5.481 l 2.193,-1.1 2.192,-2.203 v -2.202 l -2.192,-1.101 v -2.202 l 3.289,-2.203 2.192,-2.201 v -3.304 l -2.192,-2.202 -1.097,-1.103 -1.096,1.103 -1.096,-3.304 -3.29,-1.102 h -2.193 l -1.096,-1.101 c -14.741,21.1 -13.157,39.643 -13.157,39.643 l 5.481,3.302 v -2.2 z m 30.699,23.123 -3.29,-3.303 h -5.481 l -1.097,-2.202 v -3.303 h -4.385 l -5.481,-4.404 -9.867,-1.102 -4.386,12.111 c 7.963,23.824 21.927,33.036 21.927,33.036 l 1.097,-4.405 1.096,-3.303 1.097,-1.103 3.289,-2.202 3.288,-1.1 1.098,-3.303 1.096,-2.203 2.192,-2.203 1.096,-4.405 1.096,-3.303 -2.192,-1.102 -2.193,-2.201 z m 76.745,-75.978 -4.388,1.101 h -4.385 v -3.303 l -5.48,-2.202 h -3.289 l -3.291,1.1 -2.191,1.103 -3.289,2.202 -2.192,1.101 -2.194,2.203 -2.192,2.202 -1.096,2.202 v 1.1 l 1.096,2.203 h 6.578 l 1.096,-2.203 v -2.201 l 1.097,-1.101 2.192,-2.202 2.192,1.102 2.194,1.101 v 2.202 l -1.096,3.303 -1.099,1.103 -3.288,3.303 h -3.289 l -3.288,-3.303 -2.194,1.101 -3.289,1.102 -1.096,2.201 -2.193,2.202 h -2.192 l 1.096,1.103 1.096,3.304 -2.192,1.102 c 0,0 -0.404,-1.403 -2.192,0 -1.79,1.4 -3.29,3.303 -3.29,3.303 l 3.29,1.1 3.289,1.103 6.578,-5.505 2.192,1.1 2.194,2.203 v 4.405 h 3.288 v -4.405 l -1.096,-2.203 h 4.385 l 2.192,3.303 -1.097,3.306 2.195,3.303 1.096,1.1 v 2.203 h -1.096 l -2.195,-1.1 -2.191,-1.104 h -2.193 v 2.203 h -3.288 l -1.096,-1.1 v -2.203 l -1.098,-2.203 -4.385,-1.1 h -2.193 l -1.097,1.1 h -1.096 v 1.101 h -5.482 v 2.202 l -2.192,1.104 -1.097,2.201 -2.193,2.203 -2.192,3.303 v 6.608 l 1.097,2.201 1.096,2.201 1.098,2.202 2.192,1.103 h 4.386 l 5.481,-1.103 v 1.103 h 3.29 v 6.606 l 2.192,2.201 1.096,2.203 v 2.202 l -1.096,2.203 v 3.303 h -1.096 l 1.096,3.305 2.194,3.303 1.096,3.303 v 3.306 h 6.577 l 2.192,-3.306 1.099,-2.202 2.191,-1.101 1.097,-4.404 1.097,-2.203 1.096,-1.1 2.192,-2.203 -1.097,-4.405 h -1.096 v -1.101 l 8.77,-9.91 v -3.305 l -1.096,-1.101 h -1.097 l -3.288,-1.101 -4.385,-4.404 v -6.608 l -2.193,-3.303 h 2.193 l 1.096,1.101 v 2.202 l 1.096,1.101 2.193,2.203 2.192,2.202 3.288,1.103 3.291,-1.103 1.097,-2.202 h 3.287 v -3.304 h -5.48 v -2.202 l -1.096,-1.101 -1.099,-2.201 2.194,-1.104 2.193,2.203 1.096,1.102 h 5.48 l 2.193,1.101 1.096,2.202 2.194,3.304 v 7.709 l 1.096,3.304 1.097,1.1 h 4.385 v -7.708 l 2.192,-2.202 1.096,-1.101 2.193,-1.102 h 1.098 c 0,-0.006 -3.7,-30.77 -25.216,-46.254 z" />
		</g>
	</g><path
   inkscape:connector-curvature="0"
   style="fill:#ffffff;fill-rule:evenodd;fill-opacity:1"
   id="path11"
   d="m 125.66056,119.99294 c 0,0 68.20985,-14.82312 118.11708,47.22047 0,0 2.95522,3.42318 -1.77074,6.79043 -4.11075,3.61192 -6.16812,-0.0829 -6.16812,-0.0829 0,0 -34.69367,-51.21085 -110.17822,-53.92802 z" /><path
   inkscape:connector-curvature="0"
   style="fill:#ffffff;fill-rule:evenodd;fill-opacity:1"
   id="path13"
   d="m 99.005608,116.64765 c 0,0 79.140892,-32.524173 158.170912,20.20653 0,0 4.60811,2.85898 -0.19875,7.56934 -3.9849,4.81322 -7.56932,1.44696 -7.56932,1.44696 0,0 -57.28381,-45.1394 -150.402842,-29.22283 z" /><g
   id="g15"
   transform="matrix(0.99872395,0,0,0.99859308,-107.48056,-128.01065)"
   style="fill:#ffffff;fill-opacity:1">
		<g
   id="g17"
   style="fill:#ffffff;fill-opacity:1">
			<path
   inkscape:connector-curvature="0"
   style="fill:#ffffff;fill-opacity:1"
   id="path19"
   d="m 159.929,243.601 c -5.844,-1.595 -3.151,3.372 -0.69,4.977 13.059,8.146 27.287,-11.344 21.921,-39.075 -4.922,-23.426 -14.778,-38.498 -29.444,-36.359 -7.126,1.176 -11.222,5.624 -13.215,11.998 -0.915,3.231 -1.924,6.98 -2.214,11.714 -0.247,-1.246 -0.552,-2.617 -0.79,-3.862 -4.22,-20.473 -19.09,-22.394 -27.727,-12.347 -2.232,2.244 20.681,47.962 30.615,64.435 13.972,23.552 31.159,50.985 33.358,51.876 6.511,2.594 10.209,-4.739 7.944,-8.052 -9.966,-14.127 -20.61,-31.94 -29.49,-51.893 -0.149,-0.707 -0.295,-1.416 -0.597,-2.205 -9.527,-25.341 -5.66,-41.524 -3.393,-46.369 2.645,-5.734 8.252,3.439 14.735,22.603 5.62,16.975 6.62,34.745 -1.013,32.559 z m 80.029,-94.756 c 11.22,10.071 31.288,3.834 23.554,-9.902 -5.471,-9.316 -12.144,-6.543 -17.028,-4.374 -9.765,4.214 -11.359,10.021 -6.526,14.276 z m 146.101,31.756 c -0.466,-1.241 -7.201,-1.318 -18.479,-4.085 0.381,-0.445 0.764,-0.888 1.119,-1.24 5.138,-5.762 6.701,-10.768 4.115,-15.019 -1.286,-2.11 -3.602,-4.004 -6.953,-5.535 -3.348,-1.527 -7.736,-2.693 -13.112,-3.248 -1.796,-0.21 -4.81,7.92 -7.661,17.733 -5.326,-2.043 -9.672,-3.655 -9.801,-3.596 -2.107,1.627 -3.377,3.963 0.744,8.214 1.49,1.634 3.794,3.224 6.632,4.937 -1.006,3.811 -1.857,7.474 -2.522,10.782 -2.6,11.97 -4.969,23.251 -4.745,31.909 -0.861,0.249 -1.828,0.708 -2.856,1.434 -4.971,3.623 -10.259,2.266 -11.349,-5.371 -0.988,-6.772 1.163,-19.437 4.33,-28.144 6.07,-15.286 -7.346,-23.924 -23.148,-18.258 -5.626,2.115 -10.791,8.709 -14.075,17.43 0.488,-4.771 1.421,-9.81 2.994,-14.931 3.88,-12.242 1.427,-19.865 -15.737,-18.003 -2.163,0.273 -4.133,12.299 -3.317,30.041 0.535,11.843 1.386,21.993 2.338,29.003 -4.263,4.539 -10.158,0.968 -11.681,-3.275 -1.851,-5.352 -3.325,-15.73 -0.966,-34.498 2.825,-18.138 -7.286,-25.16 -21.531,-15.361 -2.221,1.648 -0.153,10.251 0.384,18.514 0.263,3.525 0.58,6.907 0.958,10.132 -1.522,1.256 -3.113,2.642 -4.149,3.353 -0.07,-1.074 -0.225,-2.023 -0.382,-2.971 -2.201,-18.364 -20.588,-29.763 -29.217,-24.457 -7.297,4.308 -4.096,43.254 18.716,39.028 -0.22,9.403 -3.043,15.466 -8.484,16.536 -5.817,1.185 -13.173,-11.1 -16.729,-26.121 -2.939,-11.886 -1.115,-22.402 0.725,-26.892 0.643,-1.569 2.489,-9.024 -6.863,-4.91 -10.611,4.702 -17.132,18.367 -13.996,33.724 5.399,25.205 19.368,37.131 32.456,36.407 14.814,-0.75 22.435,-16.511 23.766,-32.896 1.683,-1.102 3.469,-2.57 5.078,-4.09 2.857,17.973 8.258,29.581 18.397,30.262 5.459,0.491 10.832,-1.992 14.833,-5.128 0.368,1.44 0.737,2.378 1.097,2.722 5.184,4.611 13.809,1.774 13.305,-1.367 -0.589,-2.995 -1.102,-6.211 -1.437,-9.527 0.161,-13.04 3.28,-26.991 9.524,-30.583 3.834,-2.052 6.128,0.692 4.82,19.031 -1.153,18.031 3.588,24.461 13.128,28.046 6.794,2.612 13.758,0.555 18.421,-2.377 0.467,-0.281 0.889,-0.562 1.272,-0.84 1.008,4.665 3.296,8.078 7.485,9.727 7.158,3.068 15.72,1.158 24.778,-2.125 2.08,-0.778 3.411,-1.638 4.117,-2.481 0.179,-0.211 0.315,-0.419 0.417,-0.628 0.052,-0.102 0.092,-0.203 0.125,-0.305 0.032,-0.102 0.058,-0.199 0.071,-0.297 0.062,-0.396 -0.014,-0.766 -0.21,-1.097 -0.778,-1.312 -3.48,-1.951 -6.723,-0.46 -6.603,2.962 -15.61,1.247 -15.843,-4.34 -0.411,-8.358 3.275,-24.261 10.311,-37.673 7.84,3.246 15.649,6.159 20.295,7.103 3.427,0.667 5.684,-0.072 6.636,-2.351 0.94,-2.278 0.584,-6.1 -1.421,-11.588 z m -175.37,-7.208 c 2.596,-6.394 11.018,-0.872 14.645,17.488 0.491,2.403 0.853,4.696 1.093,6.88 -13.71,1.1 -17.609,-19.745 -15.738,-24.368 z" />
		</g>
	</g><g
   id="g21"
   transform="matrix(0.99872395,0,0,0.99859308,-107.48056,-128.01065)"
   style="fill:#00a8c8;fill-opacity:1">
		<g
   id="g23"
   style="fill:#00a8c8;fill-opacity:1">
			<path
   inkscape:connector-curvature="0"
   style="fill:#00a8c8;fill-opacity:1"
   id="path25"
   d="m 290.479,130.341 c -0.546,-0.569 -1.234,-1.024 -2.058,-1.365 -0.827,-0.34 -1.78,-0.538 -2.859,-0.588 -2.439,-0.109 -4.888,-0.176 -7.336,-0.197 -0.033,5.795 -0.062,11.589 -0.092,17.382 1.2,0.01 2.405,0.034 3.606,0.067 0.042,-1.737 0.088,-3.475 0.131,-5.213 0.94,0.027 1.881,0.061 2.817,0.101 0.944,0.042 1.835,-0.04 2.679,-0.248 0.84,-0.21 1.587,-0.546 2.242,-1.016 0.655,-0.466 1.188,-1.067 1.604,-1.797 0.415,-0.733 0.663,-1.6 0.743,-2.607 v -0.051 c 0.071,-0.89 -0.021,-1.715 -0.273,-2.473 -0.255,-0.761 -0.654,-1.424 -1.204,-1.995 z m -2.394,4.321 c -0.042,0.746 -0.344,1.352 -0.894,1.827 -0.551,0.477 -1.298,0.689 -2.243,0.647 -0.995,-0.042 -1.994,-0.08 -2.989,-0.109 0.042,-1.77 0.088,-3.54 0.134,-5.312 1,0.029 1.999,0.065 2.999,0.109 0.974,0.042 1.729,0.307 2.268,0.785 0.537,0.477 0.776,1.146 0.726,2.005 v 0.048 z m 16.477,13.069 c 1.185,0.183 2.368,0.38 3.549,0.586 0.986,-5.705 1.978,-11.411 2.969,-17.118 -1.294,-0.227 -2.591,-0.443 -3.889,-0.645 -0.878,5.729 -1.751,11.452 -2.629,17.177 z m 33.938,-9.685 c -1.104,3.389 -2.205,6.781 -3.309,10.17 -1.42,-4.211 -2.994,-8.419 -4.732,-12.607 -1.168,-0.328 -2.339,-0.645 -3.511,-0.951 -1.453,5.605 -2.906,11.211 -4.358,16.817 1.146,0.298 2.288,0.609 3.426,0.928 0.995,-3.544 1.986,-7.088 2.981,-10.632 1.701,4.304 3.233,8.625 4.599,12.946 0.97,0.321 1.936,0.649 2.901,0.985 1.897,-5.47 3.796,-10.941 5.694,-16.41 -1.226,-0.427 -2.457,-0.843 -3.691,-1.246 z" />
		</g>
	</g><path
   inkscape:connector-curvature="0"
   style="fill:#ffffff;fill-opacity:1"
   id="path59"
   d="m 73.75587,173.23992 -9.978251,-4.80323 8.617989,-7.43752 1.360262,12.24075 z" />
<g
   transform="translate(0,-253)"
   id="Layer_2">
</g>
</svg>